<svg version="1.1" id="Layer_1" xmlns="http://www.w3.org/2000/svg" xmlns:xlink="http://www.w3.org/1999/xlink" x="0px" y="0px"
	viewBox="0 0 170.3 266" style="enable-background:new 0 0 170.3 266;" xml:space="preserve">
<style type="text/css">
	.st0{fill-rule:evenodd;clip-rule:evenodd;fill:#2A9D8F;}
	.st1{fill:#2A9D8F;}
</style>
<g>
	<g>
		<g>
			<path class="st0" d="M85.2,266l-9.6-17C64.9,230.3,29.2,166.9,18,146.4C9.9,131.1,0,105.8,0,85.1C0,38.2,38.3,0,85.1,0
				c46.9,0,85.2,38.2,85.2,85.1c0,19.8-9.2,46.5-17.8,61.6c-14.4,25.1-57.7,102.2-58,102.6L85.2,266z M85.2,21.3L85.2,21.3
				C50,21.3,21.3,50,21.3,85.1c0,15.6,7.9,36.9,15.6,51.1c8.8,16.2,33.8,60.9,48.3,86.3C99,197.6,123.6,154,133.8,136
				c7-12.4,14.9-35.5,14.9-50.9c0-17.1-6.7-32.9-18.6-45.1C118,28,102,21.3,85.2,21.3L85.2,21.3L85.2,21.3z"/>
		</g>
	</g>
	<g>
		<path class="st1" d="M73,75.3l0.8-2.2c2-3.2,2.8-7.6,2.8-12.4c0-18.1-1.1-23.4-5.3-25l-0.5,23.5c0,1-0.7,2-1.8,2h-0.7
			c-1.1,0-1.8-1.1-1.8-2.1l-1.9-24c-0.5,0-1,0-1.6,0c-0.9,0-1.8,0-2.6,0l-1.9,24.3c0,0.9-0.7,1.8-1.8,1.8H56c-1.1,0-1.8-1.1-1.8-2.1
			l-0.5-22.8c-4.2,2.3-4.2,8.7-4.2,26.7c0,4.9,0.9,8.7,2.9,11.4c0.7,1.5,1.5,3.2,2.3,5.1c0.6,1.3,1.2,2.6,1.8,3.9
			c0.7,1.6,1.5,3.1,2.1,4.5l-1.9,73.8c0,1.7,3.7,3.2,5.4,3.2H65c1.7,0,5.4-1.6,5.4-3.4l-1.9-74.6l2.1-5.5L73,75.3z M63.2,159.4
			c-1.9,0-3.5-1.6-3.5-3.5s1.6-3.5,3.5-3.5c1.9,0,3.5,1.6,3.5,3.5S65.1,159.4,63.2,159.4"/>
		<path class="st1" d="M120.8,62.8c0-10.3-6.1-26.4-16.3-26.4c-10.3,0-16.3,16.1-16.3,26.4c0,8.5,4.2,15.7,11.5,17.9l-2.1,81.5
			c0,1.7,3.7,2.8,5.4,2.8h2.8c1.7,0,5.4-1.1,5.4-2.8l-2.1-81.4C116.5,78.7,120.8,71.5,120.8,62.8 M104.5,159.4
			c-1.9,0-3.5-1.6-3.5-3.5s1.6-3.5,3.5-3.5c1.9,0,3.5,1.6,3.5,3.5C108,157.9,106.4,159.4,104.5,159.4"/>
	</g>
</g>
</svg>
