<?xml version="1.0" encoding="utf-8"?>
<!-- Generator: Adobe Illustrator 24.0.1, SVG Export Plug-In . SVG Version: 6.00 Build 0)  -->
<svg version="1.1" id="Layer_1" xmlns="http://www.w3.org/2000/svg" xmlns:xlink="http://www.w3.org/1999/xlink" x="0px" y="0px"
	 viewBox="0 0 344.3 66.8" style="enable-background:new 0 0 344.3 66.8;" xml:space="preserve">
<style type="text/css">
	.st0{fill-rule:evenodd;clip-rule:evenodd;}
</style>
<g>
	<g>
		<g>
			<g>
				<path class="st0" d="M16.8,61.6l-1.9-3.3C12.8,54.6,5.8,42.1,3.5,38C2,35,0,30,0,25.9C0,16.7,7.6,9.2,16.8,9.2
					c9.2,0,16.8,7.5,16.8,16.8c0,3.9-1.8,9.2-3.5,12.1c-2.8,5-11.4,20.2-11.4,20.2L16.8,61.6z M16.8,13.4L16.8,13.4
					C9.9,13.4,4.2,19,4.2,25.9c0,3.1,1.6,7.3,3.1,10.1c1.7,3.2,6.7,12,9.5,17c2.7-4.9,7.6-13.5,9.6-17c1.4-2.5,2.9-7,2.9-10
					c0-3.4-1.3-6.5-3.7-8.9C23.3,14.7,20.1,13.4,16.8,13.4L16.8,13.4L16.8,13.4z"/>
			</g>
		</g>
	</g>
	<g>
		<g>
			<path d="M14.4,24l0.2-0.4c0.4-0.6,0.6-1.5,0.6-2.5c0-3.6-0.2-4.6-1-4.9L14,20.8c0,0.2-0.1,0.4-0.4,0.4h-0.1
				c-0.2,0-0.4-0.2-0.4-0.4l-0.4-4.7c-0.1,0-0.2,0-0.3,0c-0.2,0-0.4,0-0.5,0l-0.4,4.8c0,0.2-0.1,0.4-0.4,0.4H11
				c-0.2,0-0.4-0.2-0.4-0.4l-0.1-4.5c-0.8,0.4-0.8,1.7-0.8,5.3c0,1,0.2,1.7,0.6,2.3c0.1,0.3,0.3,0.6,0.5,1c0.1,0.2,0.2,0.5,0.4,0.8
				c0.1,0.3,0.3,0.6,0.4,0.9L11.2,41c0,0.3,0.7,0.6,1.1,0.6h0.6c0.3,0,1.1-0.3,1.1-0.7l-0.4-14.7l0.4-1.1L14.4,24z M12.5,40.6
				c-0.4,0-0.7-0.3-0.7-0.7s0.3-0.7,0.7-0.7c0.4,0,0.7,0.3,0.7,0.7S12.8,40.6,12.5,40.6"/>
		</g>
		<g>
			<path d="M23.8,21.5c0-2-1.2-5.2-3.2-5.2s-3.2,3.2-3.2,5.2c0,1.7,0.8,3.1,2.3,3.5l-0.4,16.1c0,0.3,0.7,0.5,1.1,0.5h0.6
				c0.3,0,1.1-0.2,1.1-0.5l-0.4-16C23,24.7,23.8,23.2,23.8,21.5 M20.6,40.6c-0.4,0-0.7-0.3-0.7-0.7s0.3-0.7,0.7-0.7
				c0.4,0,0.7,0.3,0.7,0.7C21.3,40.3,21,40.6,20.6,40.6"/>
		</g>
	</g>
</g>
<g>
	<rect x="63.2" width="1" height="66.8"/>
</g>
<g>
	<path d="M118.9,51h-6.5V35.9H96.1V51h-6.5V16.3h6.5v14.9h16.2V16.3h6.5V51z"/>
	<path d="M135.7,26c1.5,0,3,0.2,4.3,0.7c1.3,0.5,2.4,1.2,3.4,2.2c0.9,1,1.7,2.1,2.2,3.5c0.5,1.4,0.8,3,0.8,4.7c0,0.4,0,0.8-0.1,1.1
		c0,0.3-0.1,0.5-0.2,0.7c-0.1,0.2-0.2,0.3-0.4,0.4c-0.2,0.1-0.4,0.1-0.7,0.1h-15.2c0.2,2.5,0.9,4.4,2,5.6c1.2,1.2,2.7,1.8,4.7,1.8
		c1,0,1.8-0.1,2.5-0.3c0.7-0.2,1.3-0.5,1.8-0.7s1-0.5,1.4-0.7c0.4-0.2,0.8-0.3,1.1-0.3c0.2,0,0.4,0,0.6,0.1c0.2,0.1,0.3,0.2,0.5,0.4
		l1.7,2.2c-0.7,0.8-1.4,1.4-2.2,1.9c-0.8,0.5-1.7,0.9-2.6,1.2s-1.8,0.5-2.7,0.7c-0.9,0.1-1.8,0.2-2.7,0.2c-1.7,0-3.3-0.3-4.8-0.9
		c-1.5-0.6-2.7-1.4-3.8-2.5c-1.1-1.1-1.9-2.5-2.6-4.1s-0.9-3.5-0.9-5.7c0-1.7,0.3-3.3,0.8-4.7s1.3-2.8,2.3-3.9c1-1.1,2.3-2,3.7-2.6
		C132.2,26.3,133.9,26,135.7,26z M135.8,30.3c-1.7,0-3.1,0.5-4,1.5c-1,1-1.6,2.4-1.9,4.1H141c0-0.8-0.1-1.5-0.3-2.2
		c-0.2-0.7-0.5-1.3-1-1.8c-0.4-0.5-1-0.9-1.6-1.2C137.5,30.4,136.7,30.3,135.8,30.3z"/>
	<path d="M157.5,15.4V51h-5.9V15.4H157.5z"/>
	<path d="M170.4,15.4V51h-5.9V15.4H170.4z"/>
	<path d="M187.6,26c1.8,0,3.5,0.3,5,0.9c1.5,0.6,2.8,1.4,3.8,2.5c1.1,1.1,1.9,2.4,2.4,4c0.6,1.6,0.9,3.3,0.9,5.2
		c0,1.9-0.3,3.7-0.9,5.3c-0.6,1.6-1.4,2.9-2.4,4c-1.1,1.1-2.3,1.9-3.8,2.5c-1.5,0.6-3.2,0.9-5,0.9c-1.8,0-3.5-0.3-5-0.9
		s-2.8-1.4-3.8-2.5s-1.9-2.4-2.5-4c-0.6-1.6-0.9-3.3-0.9-5.3c0-1.9,0.3-3.7,0.9-5.2c0.6-1.6,1.4-2.9,2.5-4c1.1-1.1,2.3-1.9,3.8-2.5
		C184.1,26.3,185.8,26,187.6,26z M187.6,46.8c2,0,3.6-0.7,4.5-2.1s1.5-3.4,1.5-6c0-2.7-0.5-4.7-1.5-6.1c-1-1.4-2.5-2.1-4.5-2.1
		c-2.1,0-3.6,0.7-4.6,2.1c-1,1.4-1.5,3.4-1.5,6.1s0.5,4.6,1.5,6C184,46.1,185.5,46.8,187.6,46.8z"/>
	<path d="M233.9,51h-6.5V35.9h-16.2V51h-6.5V16.3h6.5v14.9h16.2V16.3h6.5V51z"/>
	<path d="M250.8,26c1.5,0,3,0.2,4.3,0.7c1.3,0.5,2.4,1.2,3.4,2.2c0.9,1,1.7,2.1,2.2,3.5s0.8,3,0.8,4.7c0,0.4,0,0.8-0.1,1.1
		c0,0.3-0.1,0.5-0.2,0.7c-0.1,0.2-0.2,0.3-0.4,0.4c-0.2,0.1-0.4,0.1-0.7,0.1h-15.2c0.2,2.5,0.9,4.4,2,5.6c1.2,1.2,2.7,1.8,4.7,1.8
		c1,0,1.8-0.1,2.5-0.3c0.7-0.2,1.3-0.5,1.8-0.7c0.5-0.3,1-0.5,1.4-0.7c0.4-0.2,0.8-0.3,1.1-0.3c0.2,0,0.4,0,0.6,0.1s0.3,0.2,0.5,0.4
		l1.7,2.2c-0.7,0.8-1.4,1.4-2.2,1.9c-0.8,0.5-1.7,0.9-2.6,1.2c-0.9,0.3-1.8,0.5-2.7,0.7c-0.9,0.1-1.8,0.2-2.7,0.2
		c-1.7,0-3.3-0.3-4.8-0.9c-1.5-0.6-2.7-1.4-3.8-2.5c-1.1-1.1-1.9-2.5-2.6-4.1s-0.9-3.5-0.9-5.7c0-1.7,0.3-3.3,0.8-4.7
		s1.3-2.8,2.3-3.9c1-1.1,2.3-2,3.7-2.6C247.3,26.3,248.9,26,250.8,26z M250.9,30.3c-1.7,0-3.1,0.5-4,1.5c-1,1-1.6,2.4-1.9,4.1h11.1
		c0-0.8-0.1-1.5-0.3-2.2c-0.2-0.7-0.5-1.3-1-1.8c-0.4-0.5-1-0.9-1.6-1.2C252.5,30.4,251.8,30.3,250.9,30.3z"/>
	<path d="M285.5,51h-2.7c-0.6,0-1-0.1-1.3-0.3c-0.3-0.2-0.6-0.5-0.7-1l-0.5-1.7c-0.6,0.6-1.2,1.1-1.8,1.5c-0.6,0.4-1.2,0.8-1.9,1.1
		c-0.6,0.3-1.3,0.5-2,0.6s-1.5,0.2-2.4,0.2c-1,0-2-0.1-2.9-0.4c-0.9-0.3-1.6-0.7-2.3-1.3c-0.6-0.6-1.1-1.3-1.5-2.1
		c-0.4-0.8-0.5-1.8-0.5-2.9c0-0.9,0.2-1.8,0.7-2.8c0.5-0.9,1.3-1.7,2.4-2.5c1.1-0.7,2.6-1.3,4.5-1.8c1.9-0.5,4.2-0.7,7-0.7v-1.4
		c0-1.7-0.3-2.9-1-3.7c-0.7-0.8-1.7-1.2-3-1.2c-1,0-1.8,0.1-2.4,0.3c-0.6,0.2-1.2,0.5-1.7,0.8c-0.5,0.3-0.9,0.5-1.3,0.8
		c-0.4,0.2-0.8,0.3-1.3,0.3c-0.4,0-0.7-0.1-1-0.3c-0.3-0.2-0.5-0.5-0.7-0.8l-1.1-1.9c2.8-2.6,6.2-3.9,10.2-3.9
		c1.4,0,2.7,0.2,3.8,0.7c1.1,0.5,2.1,1.1,2.9,2c0.8,0.8,1.4,1.8,1.8,3c0.4,1.2,0.6,2.4,0.6,3.8V51z M274,47.3c0.6,0,1.2-0.1,1.7-0.2
		c0.5-0.1,1-0.3,1.5-0.5c0.5-0.2,0.9-0.5,1.3-0.8s0.9-0.7,1.3-1.1v-4.1c-1.7,0-3.2,0.1-4.3,0.3c-1.2,0.2-2.1,0.5-2.8,0.8
		s-1.2,0.7-1.5,1.2c-0.3,0.5-0.4,0.9-0.4,1.5c0,1,0.3,1.8,0.9,2.2C272.2,47.1,273,47.3,274,47.3z"/>
	<path d="M297.6,15.4V51h-5.9V15.4H297.6z"/>
	<path d="M312.4,51.4c-2.1,0-3.8-0.6-4.9-1.8s-1.7-2.9-1.7-5V30.8h-2.5c-0.3,0-0.6-0.1-0.8-0.3c-0.2-0.2-0.3-0.5-0.3-0.9v-2.3l4-0.6
		l1.2-6.7c0.1-0.3,0.2-0.6,0.4-0.7c0.2-0.2,0.5-0.3,0.9-0.3h3.1v7.7h6.5v4.2h-6.5v13.3c0,0.8,0.2,1.4,0.6,1.8
		c0.4,0.4,0.9,0.6,1.5,0.6c0.4,0,0.7,0,0.9-0.1s0.5-0.2,0.6-0.3c0.2-0.1,0.3-0.2,0.5-0.3s0.3-0.1,0.4-0.1c0.2,0,0.3,0,0.4,0.1
		s0.2,0.2,0.4,0.4l1.8,2.9c-0.9,0.7-1.9,1.3-3,1.6S313.6,51.4,312.4,51.4z"/>
	<path d="M322.8,51V15.4h5.9v13.7c1-0.9,2-1.6,3.2-2.2c1.2-0.6,2.5-0.8,4-0.8c1.3,0,2.5,0.2,3.6,0.7c1,0.5,1.9,1.1,2.6,1.9
		c0.7,0.8,1.2,1.8,1.6,2.9s0.5,2.4,0.5,3.8V51h-5.9V35.4c0-1.5-0.3-2.7-1-3.5c-0.7-0.8-1.7-1.2-3.1-1.2c-1,0-2,0.2-2.9,0.7
		c-0.9,0.5-1.7,1.1-2.5,1.9V51H322.8z"/>
</g>
</svg>
