<svg height='300px' width='300px'  fill="#000000" xmlns="http://www.w3.org/2000/svg" xmlns:xlink="http://www.w3.org/1999/xlink" version="1.1" x="0px" y="0px" viewBox="0 0 100 100" enable-background="new 0 0 100 100" xml:space="preserve"><g><g><g><path fill-rule="evenodd" clip-rule="evenodd" d="M50.013,94.34l-3.212-5.65c-3.533-6.276-15.461-27.395-19.184-34.215     c-2.695-5.107-5.996-13.553-5.996-20.447c0-15.619,12.771-28.367,28.365-28.367c15.628,0,28.393,12.748,28.393,28.367     c0,6.604-3.063,15.496-5.93,20.525c-4.807,8.365-19.224,34.07-19.345,34.209L50.013,94.34z M50.013,12.766L50.013,12.766     c-11.709,0-21.299,9.565-21.299,21.262c0,5.185,2.626,12.311,5.184,17.038c2.943,5.414,11.277,20.3,16.089,28.757     c4.634-8.309,12.832-22.816,16.239-28.829c2.34-4.144,4.967-11.845,4.967-16.966c0-5.715-2.219-10.957-6.209-15.021     c-4.026-4.008-9.355-6.24-14.997-6.24H50.013z"></path></g></g><g><path fill="#000000" d="M45.938,30.776l0.281-0.737c0.66-1.08,0.944-2.532,0.944-4.135c0-6.027-0.359-7.809-1.753-8.333    l-0.166,7.843c0,0.334-0.247,0.657-0.614,0.657h-0.218c-0.368,0-0.614-0.365-0.614-0.707l-0.648-8.01    c-0.166,0.001-0.338,0.001-0.518,0.001c-0.315,0-0.607,0.002-0.881,0.008l-0.646,8.114c0.001,0.313-0.246,0.593-0.613,0.593    h-0.218c-0.368,0-0.615-0.365-0.615-0.706l-0.161-7.606c-1.396,0.751-1.397,2.884-1.397,8.91c0,1.625,0.291,2.914,0.971,3.813    c0.227,0.493,0.493,1.08,0.779,1.699c0.195,0.425,0.399,0.861,0.602,1.293c0.244,0.524,0.486,1.032,0.711,1.496l-0.64,24.596    c0,0.582,1.235,1.082,1.815,1.082h0.956c0.578,0,1.814-0.547,1.814-1.127l-0.65-24.879l0.704-1.84L45.938,30.776z M42.677,58.809    c-0.638,0-1.156-0.518-1.156-1.156s0.519-1.156,1.156-1.156c0.64,0,1.158,0.518,1.158,1.156S43.317,58.809,42.677,58.809"></path><path fill="#000000" d="M61.9,26.586c0-3.419-2.021-8.784-5.443-8.784c-3.42,0-5.441,5.364-5.441,8.784    c0,2.839,1.396,5.227,3.826,5.958l-0.711,27.167c0,0.57,1.217,0.936,1.785,0.936h0.941c0.57,0,1.785-0.365,1.785-0.936    l-0.709-27.129C60.449,31.902,61.9,29.479,61.9,26.586 M56.457,58.809c-0.639,0-1.156-0.518-1.156-1.156s0.518-1.156,1.156-1.156    c0.641,0,1.156,0.518,1.156,1.156C57.615,58.291,57.098,58.809,56.457,58.809"></path></g></g></svg>